<svg aria-hidden="true" style="position: absolute; width: 0; height: 0; overflow: hidden;" version="1.1" xmlns="http://www.w3.org/2000/svg" xmlns:xlink="http://www.w3.org/1999/xlink">
<defs>
<symbol id="icon-left" viewBox="0 0 32 32">
<path d="M11.035 16.889l4.768 4.768-1.257 1.257-6.914-6.914 6.914-6.914 1.257 1.257-4.768 4.768h12.076v1.778h-12.076z"></path>
</symbol>
<symbol id="icon-right" viewBox="0 0 32 32">
<path d="M20.965 15.111l-4.768-4.768 1.257-1.257 6.914 6.914-6.914 6.914-1.257-1.257 4.768-4.768h-12.076v-1.778h12.076z"></path>
</symbol>
<symbol id="icon-basket" viewBox="0 0 72 32">
<path stroke-linejoin="miter" stroke-linecap="butt" stroke-miterlimit="4" stroke-width="4" d="M24.396 12l2.676 14.716c0.346 1.902 2.002 3.284 3.936 3.284h9.985c1.933 0 3.59-1.382 3.935-3.284l2.676-14.716h-23.207z"></path>
<path d="M32 8h-4c0-4.418 3.582-8 8-8s8 3.582 8 8h-4c0-2.209-1.791-4-4-4s-4 1.791-4 4z"></path>
</symbol>
<symbol id="icon-user" viewBox="0 0 68 32">
<path d="M22.603 32c-0.010-2.381-0.014-3.636-0.014-3.765 0-6.238 5.057-11.294 11.294-11.294s11.294 5.057 11.294 11.294v3.765h-3.765v-1.882c0-5.198-1.796-9.412-7.529-9.412s-7.529 4.214-7.529 9.412c0 0.082 0.002 0.709 0.005 1.882h-3.756z"></path>
<path d="M33.882 15.059c-4.158 0-7.529-3.371-7.529-7.529s3.371-7.529 7.529-7.529c4.158 0 7.529 3.371 7.529 7.529s-3.371 7.529-7.529 7.529zM33.882 11.294c2.079 0 3.765-1.685 3.765-3.765s-1.685-3.765-3.765-3.765c-2.079 0-3.765 1.686-3.765 3.765s1.685 3.765 3.765 3.765z"></path>
</symbol>
<symbol id="icon-lupa" viewBox="0 0 68 32">
<path d="M39.017 23.644l2.662-2.662 6.655 6.655-2.662 2.662-6.655-6.655zM39.017 20.981c-4.411 4.411-11.562 4.411-15.972 0s-4.411-11.562 0-15.972c4.411-4.411 11.562-4.411 15.972 0s4.411 11.562 0 15.972zM36.355 18.32c2.94-2.94 2.94-7.708 0-10.648s-7.708-2.94-10.648 0c-2.94 2.94-2.94 7.708 0 10.648s7.708 2.94 10.648 0z"></path>
</symbol>
<symbol id="icon-logo" viewBox="0 0 242 32">
<path d="M15.065 27.089c6.049 0 10.942-4.983 10.942-11.143s-4.894-11.143-10.942-11.143c-6.049 0-10.942 4.984-10.942 11.143s4.893 11.143 10.942 11.143zM15.065 0.604c8.323 0 15.065 6.867 15.065 15.342s-6.742 15.342-15.065 15.342c-8.321 0-15.065-6.867-15.065-15.342s6.744-15.342 15.065-15.342z"></path>
<path d="M36.589 12.061v10.711c0 3.1 1.194 4.67 3.583 4.67 2.427 0 3.622-1.57 3.622-4.67v-10.711h4.238v18.677h-4.238v-2.119c-0.655 1.53-2.081 2.669-4.585 2.669-2.773 0-5.317-1.53-6.319-4.551-0.347-0.981-0.539-2.236-0.539-3.845v-10.83h4.238z"></path>
<path d="M61.017 12.061v4.041h-4.623v7.102c0 1.569 0.115 2.59 0.385 3.1 0.27 0.549 0.771 0.823 1.541 0.823 0.578 0 1.349-0.236 2.274-0.706l0.424-0.235v4.434c-1.117 0.432-2.042 0.667-2.851 0.667-2.119 0-3.699-0.667-4.816-2.041-0.809-0.981-1.194-2.629-1.194-4.983v-8.162h-1.503v-4.041h1.503v-6.043h4.238v6.043h4.623z"></path>
<path d="M68.102 25.715c0.963 1.138 2.196 1.726 3.66 1.726 1.541 0 2.813-0.549 3.776-1.648 0.964-1.138 1.464-2.59 1.464-4.356 0-1.726-0.5-3.178-1.464-4.316s-2.196-1.688-3.737-1.688c-1.503 0-2.696 0.55-3.66 1.688s-1.464 2.55-1.464 4.238c0 1.765 0.462 3.218 1.426 4.355zM76.732 1.153h4.238v29.584h-4.238v-2.158c-1.464 1.962-3.544 2.708-5.663 2.708-2.504 0-4.585-0.942-6.242-2.825-1.656-1.845-2.466-4.238-2.466-7.102 0-2.826 0.81-5.14 2.427-6.984 1.657-1.883 3.699-2.824 6.203-2.824 2.119 0 4.277 0.705 5.741 2.904v-13.302z"></path>
<path d="M92.555 27.442c3.468 0 5.587-2.669 5.587-6.003s-2.119-6.003-5.587-6.003c-3.467 0-5.548 2.668-5.548 6.003s2.080 6.003 5.548 6.003zM92.555 11.551c5.472 0 9.787 4.394 9.787 9.887s-4.315 9.849-9.787 9.849c-5.47 0-9.748-4.356-9.748-9.849s4.278-9.887 9.748-9.887z"></path>
<path d="M113.403 27.442c3.468 0 5.587-2.669 5.587-6.003s-2.119-6.003-5.587-6.003c-3.468 0-5.548 2.668-5.548 6.003s2.080 6.003 5.548 6.003zM113.403 11.551c5.472 0 9.787 4.394 9.787 9.887s-4.315 9.849-9.787 9.849c-5.471 0-9.748-4.356-9.748-9.849s4.277-9.887 9.748-9.887z"></path>
<path d="M125.028 12.061h4.238v1.883c0.809-1.412 2.119-2.393 4.045-2.393 1.040 0 1.849 0.313 2.35 0.785v4.472c-0.694-0.549-1.58-0.863-2.543-0.863-2.582 0-3.853 1.727-3.853 5.022v9.77h-4.238v-18.677z"></path>
<path d="M170.049 1.153l-11.52 29.584h-5.548l-11.558-29.584h4.855l9.323 24.876h0.232l9.362-24.876h4.855z"></path>
<path d="M175.243 27.442c3.468 0 5.587-2.669 5.587-6.003s-2.119-6.003-5.587-6.003c-3.468 0-5.548 2.668-5.548 6.003s2.080 6.003 5.548 6.003zM175.243 11.551c5.471 0 9.786 4.394 9.786 9.887s-4.315 9.849-9.786 9.849c-5.47 0-9.747-4.356-9.747-9.849s4.277-9.887 9.747-9.887z"></path>
<path d="M187.011 30.738h4.239v-18.677h-4.239v18.677zM189.13 1.546c1.618 0 2.889 1.294 2.889 2.943 0 1.647-1.271 2.942-2.889 2.942s-2.889-1.295-2.889-2.942c0-1.648 1.271-2.943 2.889-2.943z"></path>
<path d="M208.334 17.79c-1.232-1.569-2.658-2.276-5.084-2.276-3.469 0-5.703 2.59-5.703 5.924 0 3.414 2.234 5.885 5.547 5.885 2.428 0 3.738-0.745 5.24-2.315v4.866c-1.618 1.137-3.428 1.412-5.124 1.412-5.548 0-9.979-4.12-9.979-9.809 0-5.885 4.393-9.966 9.979-9.966 1.888 0 3.698 0.353 5.124 1.373v4.905z"></path>
<path d="M223.158 18.888c-0.578-2.314-2.004-3.453-4.276-3.453-2.004 0-3.738 1.412-4.24 3.453h8.516zM227.472 22.42h-13.1c0.116 1.569 0.618 2.786 1.464 3.649 0.888 0.903 2.39 1.373 3.738 1.373 1.040 0 1.926-0.196 2.736-0.549 1.080-0.47 2.388-1.374 3.428-2.629v4.826c-1.386 1.139-2.928 2.198-6.742 2.198-2.736 0-4.93-0.903-6.588-2.707-1.656-1.766-2.466-4.159-2.466-7.141 0-2.942 0.81-5.336 2.388-7.18 1.62-1.805 3.778-2.707 6.434-2.707 2.698 0 4.818 0.863 6.398 2.629 1.578 1.765 2.348 4.159 2.348 7.219l-0.038 1.021z"></path>
<path d="M240.38 17.475c-1.542-1.608-3.16-2.119-4.584-2.119-1.312 0-2.39 0.432-2.39 1.491s0.808 1.491 2.466 2.238c3.468 1.529 5.664 2.589 5.664 5.924 0 3.688-2.506 6.278-6.434 6.278-2.968 0-4.664-0.824-6.050-1.962v-5.179c1.502 2 3.584 3.178 5.278 3.178 1.966 0 2.89-0.549 2.89-1.884 0-0.784-0.386-1.53-1.656-2.158l-2.582-1.255c-2.274-1.098-3.584-2.354-3.584-4.866 0-3.649 2.66-5.61 5.972-5.61 2.62 0 3.97 0.667 5.010 1.452v4.472z"></path>
</symbol>
</defs>
</svg>
